<svg width="454" height="272" viewBox="0 0 454 272" fill="none" xmlns="http://www.w3.org/2000/svg">
<path d="M24.8552 233.571L34.1584 214.871H49.7724L33.9413 242.781L50.1755 271.342H34.5151L25.0723 252.239L15.614 271.342H0L16.2342 242.781L0.403156 214.871H16.0326L24.8552 233.571ZM74.581 251.231H67.185V271.171H53.6487V214.871H75.8215C82.5974 214.871 87.7296 216.313 91.4354 219.399C93.3112 220.888 94.8096 222.799 95.8091 224.975C96.8085 227.152 97.2809 229.534 97.1879 231.927C97.3048 235.38 96.4507 238.797 94.7226 241.789C92.9114 244.571 90.3463 246.781 87.3265 248.161L99.0331 270.954V271.574H84.4425L74.581 251.231ZM67.3865 240.765H76.023C77.0752 240.876 78.1388 240.748 79.1347 240.391C80.1307 240.034 81.0333 239.457 81.7756 238.703C83.1431 237.103 83.8719 235.055 83.8223 232.95C83.8975 231.902 83.7545 230.85 83.4022 229.86C83.0499 228.869 82.496 227.963 81.7756 227.198C81.0206 226.463 80.1158 225.899 79.1229 225.546C78.1301 225.193 77.0727 225.058 76.023 225.151H67.3865V240.765ZM118.353 252.053V271.171H104.817V214.871H127.423C131.398 214.79 135.337 215.634 138.929 217.337C142.077 218.854 144.756 221.196 146.681 224.112C148.541 227.137 149.468 230.642 149.348 234.191C149.431 236.692 148.937 239.18 147.905 241.46C146.872 243.74 145.329 245.752 143.394 247.34C139.487 250.627 134.091 252.27 127.16 252.27H118.337L118.353 252.053ZM118.353 241.587H127.175C128.26 241.697 129.356 241.569 130.387 241.213C131.418 240.857 132.359 240.281 133.145 239.525C133.877 238.81 134.441 237.941 134.795 236.98C135.149 236.02 135.285 234.993 135.192 233.974C135.332 231.673 134.601 229.404 133.145 227.617C132.434 226.798 131.548 226.151 130.552 225.724C129.555 225.297 128.475 225.101 127.392 225.151H118.353V241.587ZM188.127 260.891H211.804V271.373H174.436V214.871H188.003V260.891H188.127ZM251.823 247.34H230.519V260.891H255.793V271.373H217.029V214.871H256.072V225.353H230.798V237.261H251.963L251.823 247.34ZM260.444 271.171V214.871H278.725C283.516 214.821 288.238 216.012 292.432 218.329C296.414 220.566 299.65 223.925 301.735 227.989C303.971 232.239 305.172 236.956 305.24 241.758V244.425C305.339 249.279 304.208 254.08 301.952 258.379C299.767 262.446 296.498 265.828 292.507 268.149C288.517 270.47 283.961 271.639 279.346 271.528H260.522L260.444 271.171ZM274.012 225.353V260.891H278.663C280.401 260.988 282.137 260.664 283.723 259.949C285.31 259.234 286.702 258.148 287.78 256.782C289.848 253.919 290.882 249.81 290.882 244.456V241.99C290.882 236.439 289.848 232.33 287.78 229.663C286.675 228.28 285.252 227.184 283.633 226.468C282.013 225.753 280.244 225.439 278.477 225.554H273.965L274.012 225.353ZM357.291 264.38C354.699 266.974 351.502 268.882 347.988 269.931C343.689 271.38 339.173 272.078 334.638 271.993C327.242 271.993 321.272 269.729 316.962 265.202C312.651 260.674 310.186 254.348 309.767 246.301V241.37C309.691 236.363 310.674 231.396 312.651 226.795C314.475 222.836 317.398 219.483 321.071 217.135C324.93 214.875 329.344 213.736 333.816 213.848C340.794 213.848 346.344 215.491 350.252 218.779C354.159 222.066 356.454 226.795 357.028 233.152H343.879C343.702 230.592 342.6 228.184 340.778 226.376C338.953 224.901 336.638 224.17 334.297 224.329C332.701 224.291 331.123 224.667 329.718 225.423C328.312 226.179 327.128 227.288 326.28 228.64C324.164 232.418 323.169 236.721 323.412 241.044V244.533C323.412 250.084 324.435 254.394 326.28 257.278C328.126 260.162 331.211 261.589 335.32 261.589C338.205 261.788 341.062 260.91 343.336 259.124V250.286H333.894V240.982H356.904V264.38H357.291ZM399.419 247.324H378.053V260.876H403.311V271.357H364.548V214.871H403.59V225.353H378.317V237.261H399.683V247.34L399.419 247.324ZM429.205 251.216H421.809V271.171H408.04V214.871H430.229C437.02 214.871 442.152 216.313 445.843 219.399C447.721 220.886 449.222 222.796 450.221 224.973C451.221 227.15 451.692 229.533 451.595 231.927C451.712 235.38 450.858 238.797 449.13 241.789C447.319 244.571 444.754 246.781 441.734 248.161L453.456 270.954V271.574H438.865L429.205 251.216ZM421.809 240.75H430.43C431.482 240.86 432.546 240.732 433.542 240.375C434.538 240.018 435.441 239.441 436.183 238.688C437.53 237.085 438.242 235.043 438.183 232.95C438.255 231.903 438.11 230.851 437.758 229.861C437.406 228.872 436.854 227.965 436.136 227.198C435.387 226.469 434.489 225.909 433.505 225.556C432.521 225.203 431.472 225.065 430.43 225.151H421.794L421.809 240.75Z" fill="black"/>
<path d="M161.834 11.1639H166.176V1.37472e-05H161.834C157.232 -0.00406508 152.673 0.899545 148.42 2.65914C144.166 4.41873 140.302 6.99977 137.047 10.2546C133.792 13.5093 131.211 17.374 129.451 21.6273C127.692 25.8807 126.788 30.4393 126.792 35.0423V60.4711C126.802 65.8554 124.751 71.0393 121.061 74.9602C117.371 78.881 112.32 81.2418 106.945 81.5585L107.255 87.1405L106.945 92.7224C112.32 93.0391 117.371 95.3999 121.061 99.3207C124.751 103.242 126.802 108.425 126.792 113.81V143.115C126.776 152.839 130.621 162.172 137.482 169.063C144.344 175.954 153.661 179.838 163.385 179.863V168.699C156.642 168.695 150.177 166.014 145.409 161.246C140.641 156.479 137.96 150.013 137.956 143.27V113.81C137.961 108.55 136.677 103.37 134.218 98.7205C131.758 94.0715 128.197 90.0956 123.846 87.1405C128.185 84.1728 131.736 80.1943 134.194 75.5481C136.652 70.9019 137.944 65.7275 137.956 60.4711V35.0423C137.985 28.7181 140.51 22.6611 144.981 18.1893C149.453 13.7174 155.51 11.1925 161.834 11.1639V11.1639Z" fill="black"/>
<path d="M290.841 11.1639H286.499V0H290.841C300.112 0.0246449 308.995 3.72944 315.537 10.3002C322.079 16.8711 325.744 25.7703 325.728 35.0422V60.4711C325.718 65.8554 327.769 71.0393 331.459 74.9602C335.149 78.881 340.2 81.2418 345.575 81.5585L345.265 87.1404L345.575 92.7224C340.2 93.0391 335.149 95.3998 331.459 99.3207C327.769 103.242 325.718 108.425 325.728 113.81V143.115C325.744 152.839 321.899 162.172 315.038 169.063C308.176 175.954 298.859 179.838 289.135 179.863V168.699C295.878 168.695 302.343 166.014 307.111 161.246C311.879 156.478 314.56 150.013 314.564 143.27V113.81C314.559 108.55 315.843 103.369 318.302 98.7205C320.762 94.0715 324.323 90.0956 328.674 87.1404C324.335 84.1727 320.784 80.1942 318.326 75.5481C315.868 70.9019 314.576 65.7275 314.564 60.4711V35.0422C314.58 31.915 313.979 28.8152 312.794 25.9209C311.61 23.0266 309.865 20.3947 307.661 18.1762C305.457 15.9576 302.837 14.1961 299.95 12.9928C297.064 11.7895 293.968 11.1679 290.841 11.1639V11.1639Z" fill="black"/>
<path d="M266.961 44.9657H283.552L248.974 77.372C242.771 82.9855 234.703 86.0938 226.337 86.0938C217.97 86.0938 209.902 82.9855 203.699 77.372L169.122 44.9657H185.712L211.917 69.4642C215.83 73.0556 220.948 75.0482 226.259 75.0482C231.57 75.0482 236.688 73.0556 240.602 69.4642L266.961 44.9657Z" fill="black"/>
<path d="M185.559 134.897H168.968L203.7 102.335C209.869 96.6527 217.95 93.4982 226.338 93.4982C234.725 93.4982 242.806 96.6527 248.976 102.335L283.708 134.897H267.117L240.758 110.088C236.845 106.497 231.727 104.504 226.415 104.504C221.104 104.504 215.986 106.497 212.073 110.088L185.559 134.897Z" fill="black"/>
</svg>
